<svg width="94" height="40" viewBox="0 0 94 40" fill="none" xmlns="http://www.w3.org/2000/svg">
<rect width="94" height="40" rx="12" fill="white"/>
<path d="M49.0515 14.4576V15.9749C49.152 15.8433 49.2943 15.683 49.4785 15.4938C49.6627 15.2964 50.0645 15.0333 50.684 14.7043C51.312 14.3753 51.9692 14.2109 52.6557 14.2109C54.0957 14.2109 55.2678 14.7002 56.1719 15.6789C57.0845 16.6575 57.5408 17.9775 57.5408 19.6388V26.8431H54.0747V20.0212C54.0747 19.2646 53.8445 18.656 53.384 18.1954C52.932 17.7267 52.3459 17.4923 51.6259 17.4923C50.8389 17.4923 50.211 17.7472 49.7422 18.2571C49.2817 18.7588 49.0515 19.4743 49.0515 20.4036V26.8431H45.5855V14.4576H49.0515Z" fill="#171717"/>
<path d="M35.539 17.4923V14.4576H25.2538V17.4923H31.1687L25.0027 23.8084V26.8431H35.8027V23.8084H29.3729L35.539 17.4923Z" fill="#171717"/>
<path d="M42.1069 26.8431V14.4576H38.9338V26.8431H42.1069Z" fill="#171717"/>
<path d="M67.8259 18.1214L69.6217 16.1106L69.1822 15.6295C68.8975 15.3252 68.3868 15.0127 67.6501 14.692C66.9217 14.3712 66.1222 14.2109 65.2515 14.2109C63.8785 14.2109 62.7189 14.6138 61.7729 15.4198C60.8352 16.2258 60.3664 17.1263 60.3664 18.1214C60.3664 18.8862 60.5631 19.5195 60.9566 20.0212C61.3501 20.5228 61.8273 20.8929 62.3882 21.1314C62.9575 21.3699 63.531 21.5755 64.1087 21.7482C64.6864 21.9127 65.1719 22.1101 65.5654 22.3404C65.9589 22.5624 66.1557 22.842 66.1557 23.1792C66.1557 23.5164 66.0133 23.7919 65.7287 24.0057C65.4524 24.2113 65.038 24.3141 64.4854 24.3141C63.9831 24.3141 63.4975 24.1867 63.0287 23.9317C62.5598 23.6686 62.2501 23.463 62.0994 23.3149C61.9571 23.1587 61.8524 23.0312 61.7854 22.9325L59.8515 24.8199L60.0273 25.079C60.1529 25.227 60.3538 25.4121 60.6301 25.6341C60.9147 25.8479 61.2454 26.0659 61.6222 26.2879C61.9989 26.51 62.4887 26.6991 63.0915 26.8554C63.6943 27.0116 64.3305 27.0898 65.0003 27.0898C65.2762 27.0898 65.5417 27.078 65.7966 27.0545L64.6529 28.7804L66.8864 30L68.9952 25.682C69.6796 24.9881 70.011 24.1497 70.011 23.1792C70.011 22.4062 69.8143 21.7606 69.4208 21.2424C69.0273 20.7161 68.5417 20.3378 67.964 20.1075C67.3864 19.869 66.8129 19.6675 66.2436 19.5031C65.6826 19.3303 65.2054 19.1371 64.8119 18.9233C64.4185 18.7094 64.2217 18.4421 64.2217 18.1214C64.2217 17.8582 64.3598 17.628 64.6361 17.4306C64.9124 17.225 65.2891 17.1222 65.7664 17.1222C66.1431 17.1222 66.5115 17.2168 66.8715 17.4059C67.2315 17.5868 67.4659 17.7349 67.5747 17.85C67.6919 17.9652 67.7757 18.0556 67.8259 18.1214Z" fill="#171717"/>
<path fill-rule="evenodd" clip-rule="evenodd" d="M84.5407 21.7852H75.411C75.5449 22.4596 75.9091 23.0312 76.5036 23.5C77.098 23.9605 77.8473 24.1908 78.7515 24.1908C79.4045 24.1908 80.0073 24.0674 80.5598 23.8207C81.1208 23.5658 81.5142 23.3108 81.7403 23.0559L82.1045 22.6734L83.9003 24.9433L83.6742 25.1653C83.5654 25.2722 83.3394 25.4491 82.9961 25.6958C82.6528 25.9425 82.2887 26.1646 81.9035 26.3619C81.5184 26.5511 81.0161 26.7197 80.3966 26.8677C79.7854 27.0158 79.1533 27.0898 78.5003 27.0898C76.6501 27.0898 75.0719 26.4606 73.7659 25.2023C72.4598 23.9358 71.8068 22.4185 71.8068 20.6503C71.8068 18.8821 72.4515 17.3689 73.7408 16.1106C75.0301 14.8441 76.5747 14.2109 78.3747 14.2109C80.1747 14.2109 81.6733 14.803 82.8705 15.9873C84.0677 17.1633 84.6663 18.6354 84.6663 20.4036L84.5407 21.7852ZM80.2333 17.7637C79.731 17.336 79.1115 17.1222 78.3747 17.1222C77.638 17.1222 77.0101 17.3319 76.491 17.7513C75.9803 18.1708 75.6203 18.7177 75.411 19.392H81.2003C81.0663 18.7341 80.744 18.1913 80.2333 17.7637Z" fill="#171717"/>
<path d="M40.5413 13.158C41.429 13.158 42.1487 12.4511 42.1487 11.579C42.1487 10.707 41.429 10 40.5413 10C39.6535 10 38.9338 10.707 38.9338 11.579C38.9338 12.4511 39.6535 13.158 40.5413 13.158Z" fill="#171717"/>
<path fill-rule="evenodd" clip-rule="evenodd" d="M16.4298 26.8429C19.9808 26.8429 22.8595 24.0151 22.8595 20.5268C22.8595 17.0385 19.9808 14.2107 16.4298 14.2107C12.8787 14.2107 10 17.0385 10 20.5268C10 24.0151 12.8787 26.8429 16.4298 26.8429ZM14.6455 23.6499L19.5418 20.7005C19.5734 20.6814 19.5994 20.6556 19.6173 20.6253C19.6353 20.595 19.6446 20.5612 19.6446 20.5268C19.6446 20.4925 19.6353 20.4586 19.6173 20.4284C19.5994 20.3981 19.5734 20.3722 19.5418 20.3532L14.6455 17.4037C14.6107 17.3828 14.5703 17.3708 14.5285 17.369C14.4868 17.3672 14.4453 17.3757 14.4085 17.3935C14.3716 17.4113 14.3408 17.4378 14.3194 17.4702C14.2979 17.5026 14.2865 17.5396 14.2865 17.5774V23.4763C14.2865 23.514 14.2979 23.5511 14.3194 23.5834C14.3408 23.6158 14.3716 23.6423 14.4085 23.6602C14.4453 23.678 14.4868 23.6864 14.5285 23.6846C14.5703 23.6828 14.6107 23.6708 14.6455 23.6499Z" fill="#7E2DFC"/>
<path d="M13.7507 13.158C14.6385 13.158 15.3581 12.4511 15.3581 11.579C15.3581 10.707 14.6385 10 13.7507 10C12.8629 10 12.1433 10.707 12.1433 11.579C12.1433 12.4511 12.8629 13.158 13.7507 13.158Z" fill="#7E2DFC"/>
<path d="M20.7163 11.579C20.7163 12.4511 19.9966 13.158 19.1088 13.158C18.2211 13.158 17.5014 12.4511 17.5014 11.579C17.5014 10.707 18.2211 10 19.1088 10C19.9966 10 20.7163 10.707 20.7163 11.579Z" fill="#7E2DFC"/>
</svg>
